<mxfile host="app.diagrams.net" modified="2024-04-27T19:01:57.389Z" agent="Mozilla/5.0 (Macintosh; Intel Mac OS X 10_15_7) AppleWebKit/537.36 (KHTML, like Gecko) Chrome/120.0.0.0 YaBrowser/24.1.0.0 Safari/537.36" etag="5LBp8x5K3TyGdK1pP7H9" version="24.2.7" type="github">
  <diagram name="Страница — 1" id="bLYFQcRQQF4V_AAQSzA-">
    <mxGraphModel dx="1193" dy="814" grid="1" gridSize="10" guides="1" tooltips="1" connect="1" arrows="1" fold="1" page="1" pageScale="1" pageWidth="827" pageHeight="1169" math="0" shadow="0">
      <root>
        <mxCell id="0" />
        <mxCell id="1" parent="0" />
        <mxCell id="7F6UDzpmn1otM-s2ICzq-21" style="edgeStyle=orthogonalEdgeStyle;rounded=0;orthogonalLoop=1;jettySize=auto;html=1;exitX=0.5;exitY=1;exitDx=0;exitDy=0;entryX=0.5;entryY=0;entryDx=0;entryDy=0;startArrow=classic;startFill=1;" edge="1" parent="1" source="7F6UDzpmn1otM-s2ICzq-1" target="7F6UDzpmn1otM-s2ICzq-2">
          <mxGeometry relative="1" as="geometry" />
        </mxCell>
        <mxCell id="7F6UDzpmn1otM-s2ICzq-1" value="&lt;span style=&quot;font-size: 20px;&quot;&gt;Screen&lt;/span&gt;" style="rounded=0;whiteSpace=wrap;html=1;" vertex="1" parent="1">
          <mxGeometry x="120" y="120" width="160" height="80" as="geometry" />
        </mxCell>
        <mxCell id="7F6UDzpmn1otM-s2ICzq-22" style="edgeStyle=orthogonalEdgeStyle;rounded=0;orthogonalLoop=1;jettySize=auto;html=1;exitX=0.5;exitY=1;exitDx=0;exitDy=0;entryX=0.5;entryY=0;entryDx=0;entryDy=0;startArrow=classic;startFill=1;" edge="1" parent="1" source="7F6UDzpmn1otM-s2ICzq-2" target="7F6UDzpmn1otM-s2ICzq-3">
          <mxGeometry relative="1" as="geometry" />
        </mxCell>
        <mxCell id="7F6UDzpmn1otM-s2ICzq-2" value="&lt;span style=&quot;font-size: 20px;&quot;&gt;ScreenState&lt;/span&gt;" style="rounded=0;whiteSpace=wrap;html=1;" vertex="1" parent="1">
          <mxGeometry x="120" y="240" width="160" height="80" as="geometry" />
        </mxCell>
        <mxCell id="7F6UDzpmn1otM-s2ICzq-23" style="edgeStyle=orthogonalEdgeStyle;rounded=0;orthogonalLoop=1;jettySize=auto;html=1;exitX=0.5;exitY=1;exitDx=0;exitDy=0;entryX=0.5;entryY=0;entryDx=0;entryDy=0;startArrow=classic;startFill=1;" edge="1" parent="1" source="7F6UDzpmn1otM-s2ICzq-3" target="7F6UDzpmn1otM-s2ICzq-4">
          <mxGeometry relative="1" as="geometry" />
        </mxCell>
        <mxCell id="7F6UDzpmn1otM-s2ICzq-3" value="&lt;span style=&quot;font-size: 20px;&quot;&gt;ViewModel&lt;/span&gt;" style="rounded=0;whiteSpace=wrap;html=1;" vertex="1" parent="1">
          <mxGeometry x="120" y="360" width="160" height="80" as="geometry" />
        </mxCell>
        <mxCell id="7F6UDzpmn1otM-s2ICzq-4" value="&lt;span style=&quot;font-size: 20px;&quot;&gt;FileManager&lt;/span&gt;" style="rounded=0;whiteSpace=wrap;html=1;" vertex="1" parent="1">
          <mxGeometry x="120" y="480" width="160" height="80" as="geometry" />
        </mxCell>
        <mxCell id="7F6UDzpmn1otM-s2ICzq-24" style="edgeStyle=orthogonalEdgeStyle;rounded=0;orthogonalLoop=1;jettySize=auto;html=1;exitX=0.5;exitY=1;exitDx=0;exitDy=0;entryX=0.5;entryY=0;entryDx=0;entryDy=0;startArrow=classic;startFill=1;" edge="1" parent="1" source="7F6UDzpmn1otM-s2ICzq-13" target="7F6UDzpmn1otM-s2ICzq-16">
          <mxGeometry relative="1" as="geometry" />
        </mxCell>
        <mxCell id="7F6UDzpmn1otM-s2ICzq-13" value="&lt;span style=&quot;font-size: 20px;&quot;&gt;Service&lt;/span&gt;" style="rounded=0;whiteSpace=wrap;html=1;" vertex="1" parent="1">
          <mxGeometry x="400" y="120" width="440" height="80" as="geometry" />
        </mxCell>
        <mxCell id="7F6UDzpmn1otM-s2ICzq-25" style="edgeStyle=orthogonalEdgeStyle;rounded=0;orthogonalLoop=1;jettySize=auto;html=1;exitX=0.5;exitY=1;exitDx=0;exitDy=0;entryX=0.5;entryY=0;entryDx=0;entryDy=0;startArrow=classic;startFill=1;" edge="1" parent="1" source="7F6UDzpmn1otM-s2ICzq-16" target="7F6UDzpmn1otM-s2ICzq-18">
          <mxGeometry relative="1" as="geometry" />
        </mxCell>
        <mxCell id="7F6UDzpmn1otM-s2ICzq-16" value="&lt;span style=&quot;font-size: 20px;&quot;&gt;ServiceInteractor&lt;/span&gt;" style="rounded=0;whiteSpace=wrap;html=1;" vertex="1" parent="1">
          <mxGeometry x="400" y="240" width="440" height="80" as="geometry" />
        </mxCell>
        <mxCell id="7F6UDzpmn1otM-s2ICzq-29" style="edgeStyle=orthogonalEdgeStyle;rounded=0;orthogonalLoop=1;jettySize=auto;html=1;exitX=0.25;exitY=1;exitDx=0;exitDy=0;entryX=0.5;entryY=0;entryDx=0;entryDy=0;startArrow=classic;startFill=1;" edge="1" parent="1" source="7F6UDzpmn1otM-s2ICzq-18" target="7F6UDzpmn1otM-s2ICzq-26">
          <mxGeometry relative="1" as="geometry" />
        </mxCell>
        <mxCell id="7F6UDzpmn1otM-s2ICzq-30" style="edgeStyle=orthogonalEdgeStyle;rounded=0;orthogonalLoop=1;jettySize=auto;html=1;exitX=0.75;exitY=1;exitDx=0;exitDy=0;entryX=0.5;entryY=0;entryDx=0;entryDy=0;startArrow=classic;startFill=1;" edge="1" parent="1" source="7F6UDzpmn1otM-s2ICzq-18" target="7F6UDzpmn1otM-s2ICzq-28">
          <mxGeometry relative="1" as="geometry" />
        </mxCell>
        <mxCell id="7F6UDzpmn1otM-s2ICzq-18" value="&lt;span style=&quot;font-size: 20px;&quot;&gt;AudioRecorderRepository&lt;/span&gt;" style="rounded=0;whiteSpace=wrap;html=1;" vertex="1" parent="1">
          <mxGeometry x="400" y="360" width="440" height="80" as="geometry" />
        </mxCell>
        <mxCell id="7F6UDzpmn1otM-s2ICzq-26" value="&lt;span style=&quot;font-size: 20px;&quot;&gt;AudioRecorder&lt;/span&gt;" style="rounded=0;whiteSpace=wrap;html=1;" vertex="1" parent="1">
          <mxGeometry x="400" y="480" width="200" height="80" as="geometry" />
        </mxCell>
        <mxCell id="7F6UDzpmn1otM-s2ICzq-28" value="&lt;span style=&quot;font-size: 20px;&quot;&gt;Algoritms&lt;/span&gt;" style="rounded=0;whiteSpace=wrap;html=1;" vertex="1" parent="1">
          <mxGeometry x="640" y="480" width="200" height="80" as="geometry" />
        </mxCell>
        <mxCell id="7F6UDzpmn1otM-s2ICzq-31" value="&lt;span style=&quot;font-size: 20px;&quot;&gt;GetCountNumberForFft&lt;/span&gt;" style="rounded=0;whiteSpace=wrap;html=1;" vertex="1" parent="1">
          <mxGeometry x="1000" y="120" width="280" height="80" as="geometry" />
        </mxCell>
        <mxCell id="7F6UDzpmn1otM-s2ICzq-36" style="edgeStyle=orthogonalEdgeStyle;rounded=0;orthogonalLoop=1;jettySize=auto;html=1;exitX=0;exitY=0.5;exitDx=0;exitDy=0;entryX=0.25;entryY=1;entryDx=0;entryDy=0;" edge="1" parent="1" source="7F6UDzpmn1otM-s2ICzq-32" target="7F6UDzpmn1otM-s2ICzq-31">
          <mxGeometry relative="1" as="geometry" />
        </mxCell>
        <mxCell id="7F6UDzpmn1otM-s2ICzq-32" value="&lt;span style=&quot;font-size: 20px;&quot;&gt;NearestNumberInPowerOf2&lt;/span&gt;" style="rounded=0;whiteSpace=wrap;html=1;" vertex="1" parent="1">
          <mxGeometry x="1120" y="240" width="320" height="80" as="geometry" />
        </mxCell>
        <mxCell id="7F6UDzpmn1otM-s2ICzq-37" style="edgeStyle=orthogonalEdgeStyle;rounded=0;orthogonalLoop=1;jettySize=auto;html=1;entryX=0.25;entryY=1;entryDx=0;entryDy=0;" edge="1" parent="1" source="7F6UDzpmn1otM-s2ICzq-33" target="7F6UDzpmn1otM-s2ICzq-31">
          <mxGeometry relative="1" as="geometry">
            <Array as="points">
              <mxPoint x="1070" y="400" />
            </Array>
          </mxGeometry>
        </mxCell>
        <mxCell id="7F6UDzpmn1otM-s2ICzq-33" value="&lt;span style=&quot;font-size: 20px;&quot;&gt;CountNumbersForFft&lt;/span&gt;" style="rounded=0;whiteSpace=wrap;html=1;" vertex="1" parent="1">
          <mxGeometry x="1120" y="360" width="320" height="80" as="geometry" />
        </mxCell>
        <mxCell id="7F6UDzpmn1otM-s2ICzq-38" style="edgeStyle=orthogonalEdgeStyle;rounded=0;orthogonalLoop=1;jettySize=auto;html=1;entryX=0.25;entryY=1;entryDx=0;entryDy=0;" edge="1" parent="1" source="7F6UDzpmn1otM-s2ICzq-34" target="7F6UDzpmn1otM-s2ICzq-31">
          <mxGeometry relative="1" as="geometry">
            <Array as="points">
              <mxPoint x="1070" y="520" />
            </Array>
          </mxGeometry>
        </mxCell>
        <mxCell id="7F6UDzpmn1otM-s2ICzq-34" value="&lt;span style=&quot;font-size: 20px;&quot;&gt;CountNumbersForFft&lt;/span&gt;" style="rounded=0;whiteSpace=wrap;html=1;" vertex="1" parent="1">
          <mxGeometry x="1120" y="480" width="320" height="80" as="geometry" />
        </mxCell>
      </root>
    </mxGraphModel>
  </diagram>
</mxfile>
